<svg width="96" height="96" viewBox="0 0 96 96" fill="none" xmlns="http://www.w3.org/2000/svg">
  <defs>
    <linearGradient id="blueGrad" x1="8" y1="12" x2="30" y2="84" gradientUnits="userSpaceOnUse">
      <stop offset="0" stop-color="#2563EB"/>
      <stop offset="1" stop-color="#1D4ED8"/>
    </linearGradient>

    <linearGradient id="whiteGrad" x1="30" y1="8" x2="52" y2="88" gradientUnits="userSpaceOnUse">
      <stop offset="0" stop-color="#FFFFFF"/>
      <stop offset="1" stop-color="#E5E7EB"/>
    </linearGradient>

    <linearGradient id="redGrad" x1="56" y1="10" x2="86" y2="84" gradientUnits="userSpaceOnUse">
      <stop offset="0" stop-color="#FB7185"/>
      <stop offset="1" stop-color="#E11D48"/>
    </linearGradient>

    <filter id="shadow" x="-20" y="-20" width="140" height="140" filterUnits="userSpaceOnUse" color-interpolation-filters="sRGB">
      <feDropShadow dx="0" dy="6" stdDeviation="6" flood-color="#000000" flood-opacity="0.35"/>
    </filter>
  </defs>

  <g filter="url(#shadow)">
    <!-- Jambe bleue -->
    <path d="M12 70V28C12 22.477 16.477 18 22 18C27.523 18 32 22.477 32 28V70C32 75.523 27.523 80 22 80C16.477 80 12 75.523 12 70Z" fill="url(#blueGrad)"/>

    <!-- Diagonale blanche -->
    <path d="M28.8 28.9C25.6 24.4 26.7 18.1 31.2 14.9C35.7 11.7 42 12.8 45.2 17.3L67.5 48.4C70.7 52.9 69.6 59.2 65.1 62.4C60.6 65.6 54.3 64.5 51.1 60L28.8 28.9Z" fill="url(#whiteGrad)"/>

    <!-- Montant blanc bas -->
    <path d="M39 68V50C39 44.477 43.477 40 49 40C54.523 40 59 44.477 59 50V68C59 73.523 54.523 78 49 78C43.477 78 39 73.523 39 68Z" fill="url(#whiteGrad)"/>

    <!-- Jambe rouge -->
    <path d="M64 70V28C64 22.477 68.477 18 74 18C79.523 18 84 22.477 84 28V70C84 75.523 79.523 80 74 80C68.477 80 64 75.523 64 70Z" fill="url(#redGrad)"/>
  </g>
</svg>